# xmcd
# Copyright (C) 1995-1998 Ti Kan
#
# Track frame offsets:
#       150
#       11480
#       23390
#       40552
#
# Disc length: 709 seconds
#
# Revision: 0
# Processed by: cddbd v1.5.2PL0 Copyright (c) Steve Scherf et al.
# Submitted via: CD-Import v1.0
#
DISCID=1902c304
DTITLE=Sonic Youth - 100%
DYEAR=1900
DGENRE=
TTITLE0=100%
TTITLE1=Créme Brûlèe
TTITLE2=Genetic
TTITLE3=Hendrix Necro
EXTD=
EXTT0=
EXTT1=
EXTT2=
EXTT3=
PLAYORDER=
